<mxfile host="app.diagrams.net" modified="2021-11-23T13:31:52.114Z" agent="5.0 (Windows)" etag="wljMJivdcOOe7h5CusXO" compressed="false" version="15.7.0" type="device">
  <diagram id="yCOuzRYzMw2SDSEQppDb" name="Page-1">
    <mxGraphModel dx="1718" dy="950" grid="1" gridSize="10" guides="1" tooltips="1" connect="1" arrows="1" fold="1" page="1" pageScale="1" pageWidth="600" pageHeight="600" math="0" shadow="0">
      <root>
        <mxCell id="0" />
        <mxCell id="1" parent="0" />
        <mxCell id="qjuadA7wmCwQomGd4DEM-1" value="CalibrationModel" style="swimlane;fontStyle=1;align=center;verticalAlign=top;childLayout=stackLayout;horizontal=1;startSize=26;horizontalStack=0;resizeParent=1;resizeParentMax=0;resizeLast=0;collapsible=1;marginBottom=0;" parent="1" vertex="1">
          <mxGeometry width="320" height="210" as="geometry" />
        </mxCell>
        <mxCell id="qjuadA7wmCwQomGd4DEM-2" value="+ independent_key : str&#xa;+ dependent_key : str&#xa;+ theta_names : tuple[str]&#xa;+ ndim : int&#xa;" style="text;strokeColor=none;fillColor=none;align=left;verticalAlign=top;spacingLeft=4;spacingRight=4;overflow=hidden;rotatable=0;points=[[0,0.5],[1,0.5]];portConstraint=eastwest;" parent="qjuadA7wmCwQomGd4DEM-1" vertex="1">
          <mxGeometry y="26" width="320" height="64" as="geometry" />
        </mxCell>
        <mxCell id="qjuadA7wmCwQomGd4DEM-3" value="" style="line;strokeWidth=1;fillColor=none;align=left;verticalAlign=middle;spacingTop=-1;spacingLeft=3;spacingRight=3;rotatable=0;labelPosition=right;points=[];portConstraint=eastwest;" parent="qjuadA7wmCwQomGd4DEM-1" vertex="1">
          <mxGeometry y="90" width="320" height="8" as="geometry" />
        </mxCell>
        <mxCell id="qjuadA7wmCwQomGd4DEM-4" value="+ loglikelihood(y, x) : float or tensor&#xa;+ infer_independet(y, lower, upper) -&gt; InferenceResult&#xa;+ predict_dependent(x) -&gt; tuple&#xa;+ predict_independent(y) -&gt; float&#xa;+ objective(independent, dependent) -&gt; callable&#xa;+ save(filepath)&#xa;+ load(filepath)" style="text;strokeColor=none;fillColor=none;align=left;verticalAlign=top;spacingLeft=4;spacingRight=4;overflow=hidden;rotatable=0;points=[[0,0.5],[1,0.5]];portConstraint=eastwest;" parent="qjuadA7wmCwQomGd4DEM-1" vertex="1">
          <mxGeometry y="98" width="320" height="112" as="geometry" />
        </mxCell>
        <mxCell id="-Sqq0ENuxb83PTL8hh-A-35" style="edgeStyle=orthogonalEdgeStyle;rounded=0;orthogonalLoop=1;jettySize=auto;html=1;exitX=0.5;exitY=0;exitDx=0;exitDy=0;entryX=0.5;entryY=1;entryDx=0;entryDy=0;entryPerimeter=0;endArrow=block;endFill=0;endSize=12;strokeWidth=1;" edge="1" parent="1" source="qjuadA7wmCwQomGd4DEM-13" target="-Sqq0ENuxb83PTL8hh-A-21">
          <mxGeometry relative="1" as="geometry">
            <Array as="points">
              <mxPoint x="240" y="410" />
              <mxPoint x="160" y="410" />
            </Array>
          </mxGeometry>
        </mxCell>
        <mxCell id="-Sqq0ENuxb83PTL8hh-A-36" style="edgeStyle=orthogonalEdgeStyle;rounded=0;orthogonalLoop=1;jettySize=auto;html=1;exitX=0.5;exitY=0;exitDx=0;exitDy=0;endArrow=block;endFill=0;endSize=12;strokeWidth=1;" edge="1" parent="1" source="qjuadA7wmCwQomGd4DEM-13">
          <mxGeometry relative="1" as="geometry">
            <mxPoint x="420" y="360" as="targetPoint" />
            <Array as="points">
              <mxPoint x="240" y="410" />
              <mxPoint x="420" y="410" />
            </Array>
          </mxGeometry>
        </mxCell>
        <mxCell id="qjuadA7wmCwQomGd4DEM-13" value="BaseAsymmetricLogisticT" style="swimlane;fontStyle=1;align=center;verticalAlign=top;childLayout=stackLayout;horizontal=1;startSize=26;horizontalStack=0;resizeParent=1;resizeParentMax=0;resizeLast=0;collapsible=1;marginBottom=0;" parent="1" vertex="1">
          <mxGeometry x="160" y="450" width="160" height="110" as="geometry" />
        </mxCell>
        <mxCell id="qjuadA7wmCwQomGd4DEM-14" value="+ scale_degree : int&#xa;&#xa;&#xa;" style="text;strokeColor=none;fillColor=none;align=left;verticalAlign=top;spacingLeft=4;spacingRight=4;overflow=hidden;rotatable=0;points=[[0,0.5],[1,0.5]];portConstraint=eastwest;" parent="qjuadA7wmCwQomGd4DEM-13" vertex="1">
          <mxGeometry y="26" width="160" height="34" as="geometry" />
        </mxCell>
        <mxCell id="qjuadA7wmCwQomGd4DEM-15" value="" style="line;strokeWidth=1;fillColor=none;align=left;verticalAlign=middle;spacingTop=-1;spacingLeft=3;spacingRight=3;rotatable=0;labelPosition=right;points=[];portConstraint=eastwest;" parent="qjuadA7wmCwQomGd4DEM-13" vertex="1">
          <mxGeometry y="60" width="160" height="8" as="geometry" />
        </mxCell>
        <mxCell id="qjuadA7wmCwQomGd4DEM-16" value="+ predict_dependent(x)&#xa;+ predict_independent(y)&#xa;&#xa;&#xa;" style="text;strokeColor=none;fillColor=none;align=left;verticalAlign=top;spacingLeft=4;spacingRight=4;overflow=hidden;rotatable=0;points=[[0,0.5],[1,0.5]];portConstraint=eastwest;" parent="qjuadA7wmCwQomGd4DEM-13" vertex="1">
          <mxGeometry y="68" width="160" height="42" as="geometry" />
        </mxCell>
        <mxCell id="-Sqq0ENuxb83PTL8hh-A-37" style="edgeStyle=orthogonalEdgeStyle;rounded=0;orthogonalLoop=1;jettySize=auto;html=1;exitX=0.5;exitY=0;exitDx=0;exitDy=0;entryX=0.4;entryY=0.998;entryDx=0;entryDy=0;entryPerimeter=0;endArrow=block;endFill=0;endSize=12;strokeWidth=1;" edge="1" parent="1" source="qjuadA7wmCwQomGd4DEM-9" target="-Sqq0ENuxb83PTL8hh-A-3">
          <mxGeometry relative="1" as="geometry">
            <Array as="points">
              <mxPoint x="75" y="430" />
              <mxPoint x="240" y="430" />
              <mxPoint x="240" y="410" />
              <mxPoint x="420" y="410" />
            </Array>
          </mxGeometry>
        </mxCell>
        <mxCell id="qjuadA7wmCwQomGd4DEM-9" value="BasePolynomialModelT" style="swimlane;fontStyle=1;align=center;verticalAlign=top;childLayout=stackLayout;horizontal=1;startSize=26;horizontalStack=0;resizeParent=1;resizeParentMax=0;resizeLast=0;collapsible=1;marginBottom=0;" parent="1" vertex="1">
          <mxGeometry y="450" width="150" height="110" as="geometry" />
        </mxCell>
        <mxCell id="qjuadA7wmCwQomGd4DEM-10" value="+ mu_degree : int&#xa;+ scale_degree : int&#xa;" style="text;strokeColor=none;fillColor=none;align=left;verticalAlign=top;spacingLeft=4;spacingRight=4;overflow=hidden;rotatable=0;points=[[0,0.5],[1,0.5]];portConstraint=eastwest;" parent="qjuadA7wmCwQomGd4DEM-9" vertex="1">
          <mxGeometry y="26" width="150" height="34" as="geometry" />
        </mxCell>
        <mxCell id="qjuadA7wmCwQomGd4DEM-11" value="" style="line;strokeWidth=1;fillColor=none;align=left;verticalAlign=middle;spacingTop=-1;spacingLeft=3;spacingRight=3;rotatable=0;labelPosition=right;points=[];portConstraint=eastwest;" parent="qjuadA7wmCwQomGd4DEM-9" vertex="1">
          <mxGeometry y="60" width="150" height="8" as="geometry" />
        </mxCell>
        <mxCell id="qjuadA7wmCwQomGd4DEM-12" value="+ predict_dependent(x)&#xa;+ predict_independent(y)&#xa;" style="text;strokeColor=none;fillColor=none;align=left;verticalAlign=top;spacingLeft=4;spacingRight=4;overflow=hidden;rotatable=0;points=[[0,0.5],[1,0.5]];portConstraint=eastwest;" parent="qjuadA7wmCwQomGd4DEM-9" vertex="1">
          <mxGeometry y="68" width="150" height="42" as="geometry" />
        </mxCell>
        <mxCell id="-Sqq0ENuxb83PTL8hh-A-38" style="edgeStyle=orthogonalEdgeStyle;rounded=0;orthogonalLoop=1;jettySize=auto;html=1;exitX=0.5;exitY=0;exitDx=0;exitDy=0;entryX=0.5;entryY=0.997;entryDx=0;entryDy=0;entryPerimeter=0;endArrow=block;endFill=0;endSize=12;strokeWidth=1;" edge="1" parent="1" source="qjuadA7wmCwQomGd4DEM-17" target="-Sqq0ENuxb83PTL8hh-A-21">
          <mxGeometry relative="1" as="geometry">
            <Array as="points">
              <mxPoint x="455" y="430" />
              <mxPoint x="240" y="430" />
              <mxPoint x="240" y="410" />
              <mxPoint x="160" y="410" />
            </Array>
          </mxGeometry>
        </mxCell>
        <mxCell id="qjuadA7wmCwQomGd4DEM-17" value="BaseLogIndependentAsymmetricLogisticT" style="swimlane;fontStyle=1;align=center;verticalAlign=top;childLayout=stackLayout;horizontal=1;startSize=26;horizontalStack=0;resizeParent=1;resizeParentMax=0;resizeLast=0;collapsible=1;marginBottom=0;" parent="1" vertex="1">
          <mxGeometry x="330" y="450" width="250" height="110" as="geometry" />
        </mxCell>
        <mxCell id="qjuadA7wmCwQomGd4DEM-18" value="+ scale_degree : int&#xa;&#xa;" style="text;strokeColor=none;fillColor=none;align=left;verticalAlign=top;spacingLeft=4;spacingRight=4;overflow=hidden;rotatable=0;points=[[0,0.5],[1,0.5]];portConstraint=eastwest;" parent="qjuadA7wmCwQomGd4DEM-17" vertex="1">
          <mxGeometry y="26" width="250" height="34" as="geometry" />
        </mxCell>
        <mxCell id="qjuadA7wmCwQomGd4DEM-19" value="" style="line;strokeWidth=1;fillColor=none;align=left;verticalAlign=middle;spacingTop=-1;spacingLeft=3;spacingRight=3;rotatable=0;labelPosition=right;points=[];portConstraint=eastwest;" parent="qjuadA7wmCwQomGd4DEM-17" vertex="1">
          <mxGeometry y="60" width="250" height="8" as="geometry" />
        </mxCell>
        <mxCell id="qjuadA7wmCwQomGd4DEM-20" value="+ predict_dependent(x)&#xa;+ predict_independent(y)&#xa;&#xa;&#xa;" style="text;strokeColor=none;fillColor=none;align=left;verticalAlign=top;spacingLeft=4;spacingRight=4;overflow=hidden;rotatable=0;points=[[0,0.5],[1,0.5]];portConstraint=eastwest;" parent="qjuadA7wmCwQomGd4DEM-17" vertex="1">
          <mxGeometry y="68" width="250" height="42" as="geometry" />
        </mxCell>
        <mxCell id="-Sqq0ENuxb83PTL8hh-A-11" style="edgeStyle=orthogonalEdgeStyle;rounded=0;orthogonalLoop=1;jettySize=auto;html=1;exitX=0.5;exitY=0;exitDx=0;exitDy=0;entryX=0.497;entryY=0.989;entryDx=0;entryDy=0;entryPerimeter=0;endArrow=block;endFill=0;endSize=12;strokeWidth=1;" edge="1" parent="1" source="-Sqq0ENuxb83PTL8hh-A-1" target="-Sqq0ENuxb83PTL8hh-A-10">
          <mxGeometry relative="1" as="geometry">
            <Array as="points">
              <mxPoint x="420" y="170" />
              <mxPoint x="420" y="145" />
            </Array>
          </mxGeometry>
        </mxCell>
        <mxCell id="-Sqq0ENuxb83PTL8hh-A-1" value="StudentTNoise" style="swimlane;fontStyle=1;align=center;verticalAlign=top;childLayout=stackLayout;horizontal=1;startSize=26;horizontalStack=0;resizeParent=1;resizeParentMax=0;resizeLast=0;collapsible=1;marginBottom=0;" vertex="1" parent="1">
          <mxGeometry x="340" y="250" width="200" height="110" as="geometry" />
        </mxCell>
        <mxCell id="-Sqq0ENuxb83PTL8hh-A-2" value="" style="line;strokeWidth=1;fillColor=none;align=left;verticalAlign=middle;spacingTop=-1;spacingLeft=3;spacingRight=3;rotatable=0;labelPosition=right;points=[];portConstraint=eastwest;" vertex="1" parent="-Sqq0ENuxb83PTL8hh-A-1">
          <mxGeometry y="26" width="200" height="8" as="geometry" />
        </mxCell>
        <mxCell id="-Sqq0ENuxb83PTL8hh-A-3" value="+ scipy_dist = scipy.stats.t&#xa;+ to_scipy(*params) -&gt; dict&#xa;+ pymc_dist = pm.StudentT&#xa;+ to_pymc(*params) -&gt; dict&#xa;" style="text;strokeColor=none;fillColor=none;align=left;verticalAlign=top;spacingLeft=4;spacingRight=4;overflow=hidden;rotatable=0;points=[[0,0.5],[1,0.5]];portConstraint=eastwest;" vertex="1" parent="-Sqq0ENuxb83PTL8hh-A-1">
          <mxGeometry y="34" width="200" height="76" as="geometry" />
        </mxCell>
        <mxCell id="-Sqq0ENuxb83PTL8hh-A-8" value="DistributionMixin" style="swimlane;fontStyle=1;align=center;verticalAlign=top;childLayout=stackLayout;horizontal=1;startSize=26;horizontalStack=0;resizeParent=1;resizeParentMax=0;resizeLast=0;collapsible=1;marginBottom=0;" vertex="1" parent="1">
          <mxGeometry x="340" width="160" height="110" as="geometry" />
        </mxCell>
        <mxCell id="-Sqq0ENuxb83PTL8hh-A-9" value="" style="line;strokeWidth=1;fillColor=none;align=left;verticalAlign=middle;spacingTop=-1;spacingLeft=3;spacingRight=3;rotatable=0;labelPosition=right;points=[];portConstraint=eastwest;" vertex="1" parent="-Sqq0ENuxb83PTL8hh-A-8">
          <mxGeometry y="26" width="160" height="8" as="geometry" />
        </mxCell>
        <mxCell id="-Sqq0ENuxb83PTL8hh-A-10" value="+ scipy_dist&#xa;+ to_scipy(*params) -&gt; dict&#xa;+ pymc_dist&#xa;+ to_pymc(*params) -&gt; dict&#xa;" style="text;strokeColor=none;fillColor=none;align=left;verticalAlign=top;spacingLeft=4;spacingRight=4;overflow=hidden;rotatable=0;points=[[0,0.5],[1,0.5]];portConstraint=eastwest;" vertex="1" parent="-Sqq0ENuxb83PTL8hh-A-8">
          <mxGeometry y="34" width="160" height="76" as="geometry" />
        </mxCell>
        <mxCell id="-Sqq0ENuxb83PTL8hh-A-22" style="edgeStyle=orthogonalEdgeStyle;rounded=0;orthogonalLoop=1;jettySize=auto;html=1;exitX=0.5;exitY=0;exitDx=0;exitDy=0;entryX=0.502;entryY=1.023;entryDx=0;entryDy=0;entryPerimeter=0;endArrow=block;endFill=0;endSize=12;strokeWidth=1;" edge="1" parent="1" source="-Sqq0ENuxb83PTL8hh-A-18" target="qjuadA7wmCwQomGd4DEM-4">
          <mxGeometry relative="1" as="geometry" />
        </mxCell>
        <mxCell id="-Sqq0ENuxb83PTL8hh-A-18" value="ContinuousUnivariateModel" style="swimlane;fontStyle=1;align=center;verticalAlign=top;childLayout=stackLayout;horizontal=1;startSize=26;horizontalStack=0;resizeParent=1;resizeParentMax=0;resizeLast=0;collapsible=1;marginBottom=0;" vertex="1" parent="1">
          <mxGeometry y="250" width="320" height="130" as="geometry" />
        </mxCell>
        <mxCell id="-Sqq0ENuxb83PTL8hh-A-19" value="+ independent_key : str&#xa;+ dependent_key : str&#xa;+ theta_names : tuple[str]&#xa;" style="text;strokeColor=none;fillColor=none;align=left;verticalAlign=top;spacingLeft=4;spacingRight=4;overflow=hidden;rotatable=0;points=[[0,0.5],[1,0.5]];portConstraint=eastwest;" vertex="1" parent="-Sqq0ENuxb83PTL8hh-A-18">
          <mxGeometry y="26" width="320" height="54" as="geometry" />
        </mxCell>
        <mxCell id="-Sqq0ENuxb83PTL8hh-A-20" value="" style="line;strokeWidth=1;fillColor=none;align=left;verticalAlign=middle;spacingTop=-1;spacingLeft=3;spacingRight=3;rotatable=0;labelPosition=right;points=[];portConstraint=eastwest;" vertex="1" parent="-Sqq0ENuxb83PTL8hh-A-18">
          <mxGeometry y="80" width="320" height="8" as="geometry" />
        </mxCell>
        <mxCell id="-Sqq0ENuxb83PTL8hh-A-21" value="+ infer_independent(y, x, lower, upper, steps)&#xa;    -&gt; ContinuousUnivariateInference" style="text;strokeColor=none;fillColor=none;align=left;verticalAlign=top;spacingLeft=4;spacingRight=4;overflow=hidden;rotatable=0;points=[[0,0.5],[1,0.5]];portConstraint=eastwest;" vertex="1" parent="-Sqq0ENuxb83PTL8hh-A-18">
          <mxGeometry y="88" width="320" height="42" as="geometry" />
        </mxCell>
      </root>
    </mxGraphModel>
  </diagram>
</mxfile>
